<svg width="94" height="91" viewBox="0 0 94 91" fill="none" xmlns="http://www.w3.org/2000/svg">
<circle cx="10" cy="82.6312" r="6" fill="#DA00FF"/>
<circle cx="33" cy="13" r="6" fill="#DA00FF"/>
<rect opacity="0.5" x="14.4154" y="86.674" width="12" height="65.7225" transform="rotate(-136.095 14.4154 86.674)" fill="#DA00FF"/>
<rect opacity="0.5" x="14.4154" y="86.674" width="12" height="65.7225" transform="rotate(-136.095 14.4154 86.674)" fill="#DA00FF"/>
<rect opacity="0.5" x="14.4154" y="86.674" width="12" height="65.7225" transform="rotate(-136.095 14.4154 86.674)" fill="#DA00FF"/>
<rect opacity="0.5" x="14.4154" y="86.674" width="12" height="65.7225" transform="rotate(-136.095 14.4154 86.674)" fill="#DA00FF"/>
<rect opacity="0.5" x="14.4154" y="86.674" width="12" height="65.7225" transform="rotate(-136.095 14.4154 86.674)" fill="#DA00FF"/>
<rect opacity="0.5" x="14.4154" y="86.674" width="12" height="65.7225" transform="rotate(-136.095 14.4154 86.674)" fill="#DA00FF"/>
<circle cx="6" cy="6" r="6" transform="matrix(0.999965 -0.00832237 -0.00832237 -0.999965 0.0998688 27.0995)" fill="#DA00FF"/>
<rect opacity="0.5" width="12" height="65.3745" transform="matrix(-0.714694 0.699437 0.699437 0.714694 10.4313 16.9704)" fill="#DA00FF"/>
<circle cx="6" cy="6" r="6" transform="matrix(0.999965 -0.00832237 -0.00832237 -0.999965 0.0998688 27.0995)" fill="#DA00FF"/>
<rect opacity="0.5" width="12" height="65.3745" transform="matrix(-0.714694 0.699437 0.699437 0.714694 10.4313 16.9704)" fill="#DA00FF"/>
<circle cx="6" cy="6" r="6" transform="matrix(0.999965 -0.00832237 -0.00832237 -0.999965 0.0998688 27.0995)" fill="#DA00FF"/>
<rect opacity="0.5" width="12" height="65.3745" transform="matrix(-0.714694 0.699437 0.699437 0.714694 10.4313 16.9704)" fill="#DA00FF"/>
<circle cx="6" cy="6" r="6" transform="matrix(0.999965 -0.00832237 -0.00832237 -0.999965 0.0998688 27.0995)" fill="#DA00FF"/>
<rect opacity="0.5" width="12" height="65.3745" transform="matrix(-0.714694 0.699437 0.699437 0.714694 10.4313 16.9704)" fill="#DA00FF"/>
<ellipse cx="5.14524" cy="5.05407" rx="5.14524" ry="5.05407" transform="matrix(0.999967 -0.00817489 -0.0084725 -0.999964 8.08565 34.1919)" fill="#DA00FF"/>
<rect opacity="0.5" width="10.2017" height="55.556" transform="matrix(-0.720916 0.693023 0.705798 0.708413 16.9453 25.6597)" fill="#DA00FF"/>
<path d="M53.3496 13.0812C62.1775 3.89739 76.7791 3.60876 85.9629 12.4366C95.1467 21.2646 95.4354 35.8661 86.6074 45.0499L51.4414 81.6329L26 57.1759L34.7529 48.6329L26.9053 40.5909L53.3496 13.0812Z" fill="#DA00FF"/>
<path d="M39 47H27V45.4541L29.1211 46.3457L39 41.6396V47ZM39 39.9062L27.8125 35.2061L27 35.5928V13H39V39.9062Z" fill="#DA00FF"/>
<path d="M86.6865 51.4023C95.6991 60.4049 95.7075 75.0088 86.7051 84.0215C77.7025 93.034 63.0986 93.0424 54.0859 84.04L26.7959 56.7812L34.6758 48.623L26.0566 40.2979L50.7861 15.541L86.6865 51.4023Z" fill="#DA00FF"/>
</svg>
